<svg id="astrodog" viewBox="0 0 207 272" xmlns="http://www.w3.org/2000/svg" xmlns:xlink="http://www.w3.org/1999/xlink">
  <g id="icon" fill="#EB0C50" fill-rule="evenodd">
    <path d="M26.63 26.004c1.637 0 3.197-.316 4.639-.867 11.72 12.15 20.708 32.77 23.616 39.94a113.627 113.627 0 0 1 13.03-5.096c-7.21-14.272-19.136-31.255-29.85-40.783 1-1.843 1.567-3.953 1.567-6.196C39.632 5.821 33.812 0 26.63 0c-7.18 0-13.002 5.82-13.002 13.002 0 7.181 5.822 13.002 13.002 13.002"></path>
    <path d="M77.336 68.43c8.38-2.192 17.146-3.352 26.3-3.352 56.849 0 102.997 46.15 102.997 103.258 0 55.044-43.056 99.905-97.197 102.999 1.932-16.887 4.382-31.325 7.476-42.283 39.576 0 61.232-21.656 63.553-54.013.257-3.224-2.32-5.931-5.542-5.931h-48.73c-3.093-20.11-13.922-27.457-28.488-29.263l.386-1.932c3.223-21.658-20.755-32.743-20.755-32.743-.515 13.921 0 18.692-1.288 31.195l-.258.903c.258-19.724-27.2-29.65-27.2-29.65-2.965 42.928-3.224 97.844-26.169 124.142C8.756 214.227.635 192.184.635 168.206c0-43.572 27.072-80.827 65.229-95.909 9.42-3.367 6.098-2.528 11.472-3.868z"></path>
  </g>
</svg>